<svg xmlns="http://www.w3.org/2000/svg" xmlns:xlink="http://www.w3.org/1999/xlink" width="512" height="512" viewBox="0 0 1000 1000">
  <defs>
    <style>
      .cls-1 {
        fill: #333;
      }

      .cls-2 {
        fill: #fff;
        fill-rule: evenodd;
        filter: url(#filter);
      }
    </style>
    <filter id="filter" x="275.781" y="199.969" width="574.219" height="701.031" filterUnits="userSpaceOnUse">
      <feOffset result="offset" dx="68.178" dy="57.208" in="SourceAlpha"/>
      <feGaussianBlur result="blur" stdDeviation="7"/>
      <feFlood result="flood" flood-opacity="0.24"/>
      <feComposite result="composite" operator="in" in2="blur"/>
      <feBlend result="blend" in="SourceGraphic"/>
    </filter>
  </defs>
  <rect id="Rounded_Rectangle_dark" data-name="Rounded Rectangle dark" class="cls-1" width="1000" height="1000" rx="100" ry="100"/>
  <path id="S" class="cls-2" d="M715.43,537.28a136.66,136.66,0,0,0-42.969-49.414q-27.539-19.529-66.8-33.2a872.441,872.441,0,0,0-87.695-25Q479.3,419.9,462.5,414.819a173.183,173.183,0,0,1-33.2-14.062q-16.407-8.982-25.781-21.485t-9.375-29.687q0-27.732,27.539-47.461T494.141,282.4q48.43,0,70.312,18.165t37.5,50.585q12.1,22.661,22.461,32.618t30.274,9.961q21.872,0,36.523-16.6t14.648-37.305q0-22.65-11.718-46.484t-37.11-45.508q-25.4-21.68-63.867-34.765t-91.211-13.086q-66.018,0-114.844,19.726T312.5,276.147q-25.781,36.723-25.781,83.985,0,49.613,24.414,83.008t66.015,52.734q41.6,19.336,103.321,33.789,46.088,10.546,73.633,19.922t44.921,27.148q17.377,17.78,17.383,46.289,0,35.944-32.226,59.961t-83.789,24.024q-37.5,0-60.547-11.914T404.1,664.819q-12.7-18.355-23.633-45.7-8.991-23.043-21.68-34.765t-31.055-11.719q-22.659,0-37.3,15.039A49.937,49.937,0,0,0,275.781,623.8q0,36.327,24.414,74.8a186.23,186.23,0,0,0,63.477,61.524q55.078,32.034,139.844,32.031,70.7,0,122.265-23.437T704.1,703.882q26.751-41.4,26.757-93.36Q730.859,567.163,715.43,537.28Z"/>
</svg>
