<svg width="48" height="69" viewBox="0 0 48 69" fill="none" xmlns="http://www.w3.org/2000/svg">
<path d="M46.5898 51.75H43.4838V1.07809C43.4838 0.482718 43.0202 0 42.4485 0H1.03543C0.463691 0 0 0.482718 0 1.07809V65.7655C0.000135226 67.549 1.39351 68.9999 3.10601 68.9999H44.5192C46.2317 68.9999 47.6252 67.549 47.6252 65.7655V52.828C47.6252 52.2327 47.1617 51.75 46.5898 51.75ZM3.10601 66.8438C2.53522 66.8438 2.07072 66.3601 2.07072 65.7655V2.15618H41.4131V65.7655C41.4131 66.1433 41.4756 66.5064 41.5906 66.8438H3.10601ZM45.5545 65.7655C45.5545 66.3599 45.0902 66.8438 44.5192 66.8438C43.9483 66.8438 43.4839 66.3601 43.4839 65.7655V53.9061H45.5545V65.7655Z" fill="white"/>
<path d="M35.2014 59.2969H22.7775C22.2057 59.2969 21.7422 59.7796 21.7422 60.375C21.7422 60.9704 22.2057 61.4531 22.7775 61.4531H35.2014C35.7731 61.4531 36.2367 60.9704 36.2367 60.375C36.2367 59.7796 35.7731 59.2969 35.2014 59.2969Z" fill="white"/>
<path d="M12.424 43.125C9.56968 43.125 7.24744 45.5432 7.24744 48.5156C7.24744 49.7266 7.6331 50.8454 8.28287 51.7463C8.28287 51.7476 8.28273 51.7487 8.28273 51.75V62.5312C8.28273 62.9673 8.53493 63.3603 8.92181 63.5272C9.04987 63.5825 9.18442 63.6093 9.31775 63.6093C9.58713 63.6093 9.85203 63.4997 10.05 63.2934L12.4239 60.8214L14.7978 63.2934C15.094 63.6017 15.5391 63.6939 15.9261 63.5272C16.313 63.3603 16.5652 62.9671 16.5652 62.5312V51.75C16.5652 51.7489 16.5651 51.7476 16.5651 51.7465C17.215 50.8455 17.6006 49.7266 17.6006 48.5156C17.6006 45.5432 15.2784 43.125 12.424 43.125ZM14.4949 59.9283L13.1562 58.5345C12.7518 58.1135 12.0963 58.1135 11.6921 58.5345L10.3535 59.9285V53.4547C10.9881 53.7444 11.6881 53.9062 12.4242 53.9062C13.1602 53.9062 13.8603 53.7444 14.4949 53.4547V59.9283ZM12.424 51.75C10.7114 51.75 9.31802 50.299 9.31802 48.5156C9.31802 46.7321 10.7114 45.2812 12.424 45.2812C14.1367 45.2812 15.5301 46.7321 15.5301 48.5156C15.5299 50.299 14.1366 51.75 12.424 51.75Z" fill="#81E880"/>
<path d="M8.28275 9.70306H21.742C22.3137 9.70306 22.7773 9.22036 22.7773 8.625C22.7773 8.02964 22.3137 7.54694 21.742 7.54694H8.28275C7.71101 7.54694 7.24731 8.02964 7.24731 8.625C7.24731 9.22036 7.71087 9.70306 8.28275 9.70306Z" fill="white"/>
<path d="M7.24731 15.0937C7.24731 15.6891 7.71087 16.1718 8.28261 16.1718H35.201C35.7728 16.1718 36.2363 15.6891 36.2363 15.0937C36.2365 14.4983 35.7729 14.0156 35.2012 14.0156H8.28274C7.71101 14.0156 7.24731 14.4983 7.24731 15.0937Z" fill="white"/>
<path d="M35.2013 20.4844H8.28273C7.71099 20.4844 7.24744 20.9671 7.24744 21.5625C7.24744 22.1579 7.71099 22.6406 8.28273 22.6406H35.2012C35.7729 22.6406 36.2365 22.1579 36.2365 21.5625C36.2365 20.9671 35.773 20.4844 35.2013 20.4844Z" fill="white"/>
<path d="M35.2013 26.9531H8.28273C7.71099 26.9531 7.24744 27.4358 7.24744 28.0312C7.24744 28.6265 7.71099 29.1093 8.28273 29.1093H35.2012C35.7729 29.1093 36.2365 28.6265 36.2365 28.0312C36.2366 27.4358 35.773 26.9531 35.2013 26.9531Z" fill="white"/>
<path d="M8.28273 33.4219C7.71099 33.4219 7.24744 33.9046 7.24744 34.5C7.24744 35.0954 7.71099 35.5781 8.28273 35.5781H35.2012C35.7729 35.5781 36.2365 35.0954 36.2365 34.5C36.2365 33.9046 35.773 33.4219 35.2013 33.4219H8.28273Z" fill="white"/>
<path d="M36.2365 40.9687C36.2365 40.3733 35.773 39.8906 35.2013 39.8906H20.7067C20.1349 39.8906 19.6714 40.3733 19.6714 40.9687C19.6714 41.564 20.1349 42.0468 20.7067 42.0468H35.2012C35.7729 42.0468 36.2365 41.564 36.2365 40.9687Z" fill="white"/>
</svg>
