<svg width="77" height="53" viewBox="0 0 77 53" fill="none" xmlns="http://www.w3.org/2000/svg">
<path d="M67.8717 14.6691C67.3416 14.3983 66.7043 14.4468 66.2215 14.7949L38.7538 34.6027L21.064 18.0133C20.463 17.4498 19.5304 17.4403 18.9179 17.9911L4.1696 31.2585C3.83556 31.5593 3.64465 31.9874 3.64465 32.4366V50.5568C3.64465 51.4322 4.35476 52.142 5.23059 52.142H67.1495C68.0253 52.142 68.7354 51.4322 68.7354 50.5568V16.0803C68.7354 15.4851 68.4018 14.9402 67.8717 14.6691ZM10.6073 48.9717H6.81654V33.1424L10.6073 29.7322V48.9717ZM17.4542 48.9717H13.7792V26.879L17.4542 23.573V48.9717ZM24.3009 48.9717H20.6259V21.9498L24.3009 25.3961V48.9717ZM31.1478 48.9717H27.4728V28.3706L31.1478 31.817V48.9717ZM38.0655 48.9717H34.3197V34.7917L37.5366 37.8086C37.6934 37.9555 37.874 38.0638 38.0653 38.1356V48.9717H38.0655ZM44.9832 48.9717H41.2372V36.721L44.9832 34.0196V48.9717ZM51.9011 48.9717H48.1551V31.7322L51.9009 29.031V48.9717H51.9011ZM58.8187 48.9717H55.0728V26.7436L58.8187 24.0422V48.9717ZM65.5636 48.9717H61.9908V21.755L65.5636 19.1786V48.9717Z" fill="white"/>
<path d="M76.3977 0.661703C76.1125 0.236095 75.6238 -0.0127698 75.1169 0.000505623L65.0668 0.271563C64.3787 0.290188 63.7923 0.776229 63.6472 1.44872C63.5021 2.12141 63.8355 2.80599 64.4548 3.10637L66.8032 4.24568L39.0459 24.0275L20.1317 6.8875C19.1924 6.03629 17.7617 6.03114 16.8165 6.87522L0.827252 21.1503C-0.1935 22.0616 -0.281718 23.6273 0.63 24.6473C1.54152 25.6673 3.10783 25.7557 4.12878 24.8445L18.4548 12.0544L37.1953 29.0369C37.6649 29.4623 38.261 29.6787 38.8601 29.6787C39.362 29.6787 39.866 29.5267 40.2983 29.2186L69.5475 8.37396L69.6864 10.5682C69.73 11.2545 70.2369 11.8222 70.9141 11.9431C71.0022 11.9587 71.0904 11.9665 71.1774 11.9665C71.7598 11.9665 72.2999 11.6249 72.5423 11.0782L76.5224 2.09704C76.7302 1.62883 76.6832 1.08711 76.3977 0.661703Z" fill="#81E880"/>
</svg>
