<svg width="460" height="252" viewBox="0 0 460 252" fill="none" xmlns="http://www.w3.org/2000/svg">
<g filter="url(#filter0_d_333_15)">
<g filter="url(#filter1_b_333_15)">
<rect x="4" width="452" height="244" rx="20" fill="#F9F9F9" fill-opacity="0.78"/>
</g>
</g>
<path d="M82.6626 168.241H84.3618L87.4526 173.412L90.5435 168.241H92.25L88.1851 174.664V179H86.7275V174.664L82.6626 168.241ZM95.0625 178.15C95.9365 178.15 96.5347 177.821 96.8569 177.162C97.1841 176.498 97.3477 175.76 97.3477 174.95C97.3477 174.217 97.2305 173.622 96.9961 173.163C96.625 172.44 95.9854 172.079 95.0771 172.079C94.2715 172.079 93.6855 172.386 93.3193 173.001C92.9531 173.617 92.77 174.359 92.77 175.228C92.77 176.063 92.9531 176.759 93.3193 177.315C93.6855 177.872 94.2666 178.15 95.0625 178.15ZM95.1138 170.929C96.1245 170.929 96.979 171.266 97.6772 171.939C98.3755 172.613 98.7246 173.604 98.7246 174.913C98.7246 176.178 98.417 177.223 97.8018 178.048C97.1865 178.873 96.2319 179.286 94.938 179.286C93.8589 179.286 93.002 178.922 92.3672 178.194C91.7324 177.462 91.415 176.48 91.415 175.25C91.415 173.932 91.7495 172.882 92.4185 172.101C93.0874 171.319 93.9858 170.929 95.1138 170.929ZM101.618 171.156V176.363C101.618 176.764 101.681 177.091 101.808 177.345C102.042 177.813 102.479 178.048 103.119 178.048C104.037 178.048 104.662 177.638 104.994 176.817C105.175 176.378 105.265 175.775 105.265 175.008V171.156H106.583V179H105.338L105.353 177.843C105.182 178.141 104.97 178.392 104.716 178.597C104.213 179.007 103.603 179.212 102.885 179.212C101.767 179.212 101.005 178.839 100.6 178.092C100.38 177.691 100.27 177.157 100.27 176.488V171.156H101.618ZM112.824 168.204H114.142V172.218C114.455 171.822 114.735 171.544 114.984 171.383C115.409 171.104 115.939 170.965 116.574 170.965C117.711 170.965 118.483 171.363 118.888 172.159C119.108 172.594 119.218 173.197 119.218 173.968V179H117.863V174.056C117.863 173.48 117.79 173.058 117.643 172.789C117.404 172.359 116.955 172.145 116.295 172.145C115.749 172.145 115.253 172.333 114.809 172.708C114.364 173.084 114.142 173.795 114.142 174.84V179H112.824V168.204ZM122.184 176.913C122.184 177.293 122.323 177.594 122.602 177.813C122.88 178.033 123.209 178.143 123.59 178.143C124.054 178.143 124.503 178.036 124.938 177.821C125.67 177.464 126.037 176.881 126.037 176.07V175.008C125.875 175.111 125.668 175.196 125.414 175.265C125.16 175.333 124.911 175.382 124.667 175.411L123.869 175.514C123.39 175.577 123.031 175.677 122.792 175.814C122.387 176.043 122.184 176.41 122.184 176.913ZM125.377 174.247C125.68 174.208 125.883 174.081 125.985 173.866C126.044 173.749 126.073 173.58 126.073 173.36C126.073 172.911 125.912 172.586 125.59 172.386C125.272 172.181 124.816 172.079 124.22 172.079C123.532 172.079 123.043 172.264 122.755 172.635C122.594 172.84 122.489 173.146 122.44 173.551H121.21C121.234 172.584 121.547 171.913 122.147 171.537C122.753 171.156 123.454 170.965 124.25 170.965C125.172 170.965 125.922 171.141 126.498 171.493C127.069 171.844 127.355 172.391 127.355 173.133V177.652C127.355 177.789 127.382 177.899 127.436 177.982C127.494 178.065 127.614 178.106 127.794 178.106C127.853 178.106 127.919 178.104 127.992 178.099C128.065 178.089 128.144 178.077 128.227 178.062V179.037C128.021 179.095 127.865 179.132 127.758 179.146C127.65 179.161 127.504 179.168 127.318 179.168C126.864 179.168 126.535 179.007 126.33 178.685C126.222 178.514 126.146 178.272 126.103 177.96C125.834 178.312 125.448 178.617 124.945 178.875C124.442 179.134 123.888 179.264 123.283 179.264C122.555 179.264 121.959 179.044 121.496 178.604C121.037 178.16 120.807 177.606 120.807 176.942C120.807 176.214 121.034 175.65 121.488 175.25C121.942 174.85 122.538 174.603 123.275 174.51L125.377 174.247ZM130.167 171.156L132.262 177.542L134.452 171.156H135.895L132.936 179H131.53L128.637 171.156H130.167ZM140.29 170.98C140.846 170.98 141.386 171.112 141.908 171.375C142.431 171.634 142.829 171.971 143.102 172.386C143.366 172.782 143.542 173.243 143.629 173.771C143.708 174.132 143.747 174.708 143.747 175.499H137.997C138.021 176.295 138.209 176.935 138.561 177.418C138.913 177.896 139.457 178.136 140.194 178.136C140.883 178.136 141.432 177.909 141.842 177.455C142.077 177.191 142.243 176.886 142.34 176.539H143.637C143.603 176.827 143.488 177.149 143.292 177.506C143.102 177.857 142.887 178.146 142.648 178.37C142.248 178.761 141.752 179.024 141.161 179.161C140.844 179.239 140.485 179.278 140.084 179.278C139.108 179.278 138.28 178.924 137.602 178.216C136.923 177.503 136.583 176.507 136.583 175.228C136.583 173.968 136.925 172.945 137.609 172.159C138.292 171.373 139.186 170.98 140.29 170.98ZM142.392 174.452C142.338 173.88 142.213 173.424 142.018 173.082C141.657 172.447 141.054 172.13 140.209 172.13C139.604 172.13 139.096 172.35 138.686 172.789C138.275 173.224 138.058 173.778 138.034 174.452H142.392ZM150.331 176.539C150.37 176.979 150.48 177.315 150.661 177.55C150.993 177.975 151.569 178.187 152.389 178.187C152.877 178.187 153.307 178.082 153.678 177.872C154.049 177.657 154.235 177.328 154.235 176.883C154.235 176.546 154.086 176.29 153.788 176.114C153.598 176.007 153.222 175.882 152.66 175.741L151.613 175.477C150.944 175.311 150.451 175.125 150.133 174.92C149.567 174.564 149.284 174.071 149.284 173.441C149.284 172.699 149.55 172.098 150.082 171.639C150.619 171.18 151.339 170.951 152.243 170.951C153.424 170.951 154.276 171.297 154.799 171.991C155.126 172.43 155.285 172.904 155.275 173.412H154.03C154.005 173.114 153.9 172.843 153.715 172.599C153.412 172.252 152.887 172.079 152.14 172.079C151.642 172.079 151.264 172.174 151.005 172.364C150.751 172.555 150.624 172.806 150.624 173.119C150.624 173.46 150.792 173.734 151.129 173.939C151.325 174.061 151.613 174.168 151.994 174.261L152.865 174.474C153.812 174.703 154.447 174.925 154.77 175.14C155.282 175.477 155.539 176.007 155.539 176.729C155.539 177.428 155.272 178.031 154.74 178.539C154.213 179.046 153.407 179.3 152.323 179.3C151.156 179.3 150.329 179.037 149.84 178.509C149.357 177.977 149.098 177.32 149.064 176.539H150.331ZM158.366 171.156V176.363C158.366 176.764 158.429 177.091 158.556 177.345C158.791 177.813 159.228 178.048 159.867 178.048C160.785 178.048 161.41 177.638 161.742 176.817C161.923 176.378 162.013 175.775 162.013 175.008V171.156H163.332V179H162.086L162.101 177.843C161.93 178.141 161.718 178.392 161.464 178.597C160.961 179.007 160.351 179.212 159.633 179.212C158.515 179.212 157.753 178.839 157.348 178.092C157.128 177.691 157.018 177.157 157.018 176.488V171.156H158.366ZM168.422 170.929C169.306 170.929 170.023 171.144 170.575 171.573C171.132 172.003 171.466 172.743 171.579 173.792H170.297C170.219 173.309 170.041 172.909 169.762 172.591C169.484 172.269 169.037 172.108 168.422 172.108C167.582 172.108 166.981 172.518 166.62 173.338C166.386 173.871 166.269 174.527 166.269 175.309C166.269 176.095 166.435 176.756 166.767 177.293C167.099 177.831 167.621 178.099 168.334 178.099C168.881 178.099 169.313 177.933 169.63 177.601C169.953 177.264 170.175 176.805 170.297 176.224H171.579C171.432 177.264 171.066 178.026 170.48 178.509C169.894 178.988 169.145 179.227 168.231 179.227C167.206 179.227 166.388 178.854 165.778 178.106C165.167 177.354 164.862 176.417 164.862 175.294C164.862 173.917 165.197 172.845 165.866 172.079C166.535 171.312 167.387 170.929 168.422 170.929ZM175.922 170.929C176.806 170.929 177.523 171.144 178.075 171.573C178.632 172.003 178.966 172.743 179.079 173.792H177.797C177.719 173.309 177.541 172.909 177.262 172.591C176.984 172.269 176.537 172.108 175.922 172.108C175.082 172.108 174.481 172.518 174.12 173.338C173.886 173.871 173.769 174.527 173.769 175.309C173.769 176.095 173.935 176.756 174.267 177.293C174.599 177.831 175.121 178.099 175.834 178.099C176.381 178.099 176.813 177.933 177.13 177.601C177.453 177.264 177.675 176.805 177.797 176.224H179.079C178.932 177.264 178.566 178.026 177.98 178.509C177.394 178.988 176.645 179.227 175.731 179.227C174.706 179.227 173.888 178.854 173.278 178.106C172.667 177.354 172.362 176.417 172.362 175.294C172.362 173.917 172.697 172.845 173.366 172.079C174.035 171.312 174.887 170.929 175.922 170.929ZM183.664 170.98C184.22 170.98 184.76 171.112 185.282 171.375C185.805 171.634 186.203 171.971 186.476 172.386C186.74 172.782 186.916 173.243 187.003 173.771C187.082 174.132 187.121 174.708 187.121 175.499H181.371C181.396 176.295 181.583 176.935 181.935 177.418C182.287 177.896 182.831 178.136 183.568 178.136C184.257 178.136 184.806 177.909 185.216 177.455C185.451 177.191 185.617 176.886 185.714 176.539H187.011C186.977 176.827 186.862 177.149 186.667 177.506C186.476 177.857 186.261 178.146 186.022 178.37C185.622 178.761 185.126 179.024 184.535 179.161C184.218 179.239 183.859 179.278 183.458 179.278C182.482 179.278 181.654 178.924 180.976 178.216C180.297 177.503 179.958 176.507 179.958 175.228C179.958 173.968 180.299 172.945 180.983 172.159C181.667 171.373 182.56 170.98 183.664 170.98ZM185.766 174.452C185.712 173.88 185.587 173.424 185.392 173.082C185.031 172.447 184.428 172.13 183.583 172.13C182.978 172.13 182.47 172.35 182.06 172.789C181.649 173.224 181.432 173.778 181.408 174.452H185.766ZM189.53 176.539C189.569 176.979 189.679 177.315 189.86 177.55C190.192 177.975 190.768 178.187 191.588 178.187C192.077 178.187 192.506 178.082 192.877 177.872C193.249 177.657 193.434 177.328 193.434 176.883C193.434 176.546 193.285 176.29 192.987 176.114C192.797 176.007 192.421 175.882 191.859 175.741L190.812 175.477C190.143 175.311 189.65 175.125 189.333 174.92C188.766 174.564 188.483 174.071 188.483 173.441C188.483 172.699 188.749 172.098 189.281 171.639C189.818 171.18 190.539 170.951 191.442 170.951C192.624 170.951 193.476 171.297 193.998 171.991C194.325 172.43 194.484 172.904 194.474 173.412H193.229C193.205 173.114 193.1 172.843 192.914 172.599C192.611 172.252 192.086 172.079 191.339 172.079C190.841 172.079 190.463 172.174 190.204 172.364C189.95 172.555 189.823 172.806 189.823 173.119C189.823 173.46 189.992 173.734 190.329 173.939C190.524 174.061 190.812 174.168 191.193 174.261L192.064 174.474C193.012 174.703 193.646 174.925 193.969 175.14C194.481 175.477 194.738 176.007 194.738 176.729C194.738 177.428 194.472 178.031 193.939 178.539C193.412 179.046 192.606 179.3 191.522 179.3C190.355 179.3 189.528 179.037 189.04 178.509C188.556 177.977 188.297 177.32 188.263 176.539H189.53ZM197.03 176.539C197.069 176.979 197.179 177.315 197.36 177.55C197.692 177.975 198.268 178.187 199.088 178.187C199.577 178.187 200.006 178.082 200.377 177.872C200.749 177.657 200.934 177.328 200.934 176.883C200.934 176.546 200.785 176.29 200.487 176.114C200.297 176.007 199.921 175.882 199.359 175.741L198.312 175.477C197.643 175.311 197.15 175.125 196.833 174.92C196.266 174.564 195.983 174.071 195.983 173.441C195.983 172.699 196.249 172.098 196.781 171.639C197.318 171.18 198.039 170.951 198.942 170.951C200.124 170.951 200.976 171.297 201.498 171.991C201.825 172.43 201.984 172.904 201.974 173.412H200.729C200.705 173.114 200.6 172.843 200.414 172.599C200.111 172.252 199.586 172.079 198.839 172.079C198.341 172.079 197.963 172.174 197.704 172.364C197.45 172.555 197.323 172.806 197.323 173.119C197.323 173.46 197.492 173.734 197.829 173.939C198.024 174.061 198.312 174.168 198.693 174.261L199.564 174.474C200.512 174.703 201.146 174.925 201.469 175.14C201.981 175.477 202.238 176.007 202.238 176.729C202.238 177.428 201.972 178.031 201.439 178.539C200.912 179.046 200.106 179.3 199.022 179.3C197.855 179.3 197.028 179.037 196.54 178.509C196.056 177.977 195.797 177.32 195.763 176.539H197.03ZM204.076 169.962C204.096 169.415 204.191 169.015 204.362 168.761C204.669 168.312 205.263 168.087 206.142 168.087C206.225 168.087 206.31 168.089 206.398 168.094C206.486 168.099 206.586 168.106 206.698 168.116V169.317C206.562 169.308 206.461 169.303 206.398 169.303C206.339 169.298 206.283 169.295 206.229 169.295C205.829 169.295 205.59 169.4 205.512 169.61C205.434 169.815 205.395 170.343 205.395 171.192H206.698V172.232H205.38V179H204.076V172.232H202.985V171.192H204.076V169.962ZM209.24 171.156V176.363C209.24 176.764 209.303 177.091 209.43 177.345C209.665 177.813 210.102 178.048 210.741 178.048C211.659 178.048 212.284 177.638 212.616 176.817C212.797 176.378 212.887 175.775 212.887 175.008V171.156H214.206V179H212.96L212.975 177.843C212.804 178.141 212.592 178.392 212.338 178.597C211.835 179.007 211.225 179.212 210.507 179.212C209.389 179.212 208.627 178.839 208.222 178.092C208.002 177.691 207.892 177.157 207.892 176.488V171.156H209.24ZM216.308 168.241H217.626V179H216.308V168.241ZM219.647 168.241H220.966V179H219.647V168.241ZM227.851 171.156H229.308C229.123 171.659 228.71 172.806 228.07 174.598C227.592 175.946 227.191 177.044 226.869 177.894C226.107 179.896 225.57 181.117 225.258 181.556C224.945 181.996 224.408 182.215 223.646 182.215C223.461 182.215 223.317 182.208 223.214 182.193C223.117 182.179 222.995 182.152 222.848 182.113V180.912C223.078 180.975 223.244 181.014 223.346 181.029C223.449 181.043 223.539 181.051 223.617 181.051C223.861 181.051 224.04 181.009 224.152 180.926C224.269 180.848 224.367 180.75 224.445 180.633C224.469 180.594 224.557 180.394 224.708 180.033C224.86 179.671 224.97 179.403 225.038 179.227L222.138 171.156H223.632L225.734 177.542L227.851 171.156ZM235.409 176.539C235.448 176.979 235.558 177.315 235.739 177.55C236.071 177.975 236.647 178.187 237.467 178.187C237.956 178.187 238.385 178.082 238.756 177.872C239.127 177.657 239.313 177.328 239.313 176.883C239.313 176.546 239.164 176.29 238.866 176.114C238.676 176.007 238.3 175.882 237.738 175.741L236.691 175.477C236.022 175.311 235.529 175.125 235.211 174.92C234.645 174.564 234.362 174.071 234.362 173.441C234.362 172.699 234.628 172.098 235.16 171.639C235.697 171.18 236.417 170.951 237.321 170.951C238.502 170.951 239.354 171.297 239.877 171.991C240.204 172.43 240.363 172.904 240.353 173.412H239.108C239.083 173.114 238.979 172.843 238.793 172.599C238.49 172.252 237.965 172.079 237.218 172.079C236.72 172.079 236.342 172.174 236.083 172.364C235.829 172.555 235.702 172.806 235.702 173.119C235.702 173.46 235.871 173.734 236.208 173.939C236.403 174.061 236.691 174.168 237.072 174.261L237.943 174.474C238.891 174.703 239.525 174.925 239.848 175.14C240.36 175.477 240.617 176.007 240.617 176.729C240.617 177.428 240.351 178.031 239.818 178.539C239.291 179.046 238.485 179.3 237.401 179.3C236.234 179.3 235.407 179.037 234.918 178.509C234.435 177.977 234.176 177.32 234.142 176.539H235.409ZM245.436 178.114C246.051 178.114 246.562 177.857 246.967 177.345C247.377 176.827 247.582 176.056 247.582 175.03C247.582 174.405 247.492 173.868 247.311 173.419C246.969 172.555 246.344 172.123 245.436 172.123C244.523 172.123 243.898 172.579 243.561 173.492C243.38 173.98 243.29 174.601 243.29 175.353C243.29 175.958 243.38 176.473 243.561 176.898C243.903 177.708 244.528 178.114 245.436 178.114ZM242.023 171.192H243.305V172.232C243.568 171.876 243.856 171.6 244.169 171.405C244.613 171.112 245.136 170.965 245.736 170.965C246.625 170.965 247.379 171.307 248 171.991C248.62 172.669 248.93 173.641 248.93 174.906C248.93 176.615 248.483 177.835 247.589 178.568C247.023 179.032 246.364 179.264 245.612 179.264C245.021 179.264 244.525 179.134 244.125 178.875C243.891 178.729 243.629 178.478 243.341 178.121V182.127H242.023V171.192ZM253.588 178.15C254.462 178.15 255.06 177.821 255.382 177.162C255.709 176.498 255.873 175.76 255.873 174.95C255.873 174.217 255.756 173.622 255.521 173.163C255.15 172.44 254.511 172.079 253.603 172.079C252.797 172.079 252.211 172.386 251.845 173.001C251.479 173.617 251.295 174.359 251.295 175.228C251.295 176.063 251.479 176.759 251.845 177.315C252.211 177.872 252.792 178.15 253.588 178.15ZM253.639 170.929C254.65 170.929 255.504 171.266 256.203 171.939C256.901 172.613 257.25 173.604 257.25 174.913C257.25 176.178 256.942 177.223 256.327 178.048C255.712 178.873 254.757 179.286 253.463 179.286C252.384 179.286 251.527 178.922 250.893 178.194C250.258 177.462 249.94 176.48 249.94 175.25C249.94 173.932 250.275 172.882 250.944 172.101C251.613 171.319 252.511 170.929 253.639 170.929ZM258.825 171.156H260.077V172.269C260.448 171.81 260.841 171.48 261.256 171.28C261.671 171.08 262.133 170.98 262.641 170.98C263.754 170.98 264.506 171.368 264.896 172.145C265.111 172.569 265.219 173.177 265.219 173.968V179H263.878V174.056C263.878 173.578 263.808 173.192 263.666 172.899C263.432 172.411 263.007 172.167 262.392 172.167C262.079 172.167 261.823 172.198 261.623 172.262C261.261 172.369 260.944 172.584 260.67 172.906C260.451 173.165 260.307 173.434 260.238 173.712C260.175 173.985 260.143 174.378 260.143 174.891V179H258.825V171.156ZM267.958 176.539C267.997 176.979 268.107 177.315 268.288 177.55C268.62 177.975 269.196 178.187 270.016 178.187C270.504 178.187 270.934 178.082 271.305 177.872C271.676 177.657 271.862 177.328 271.862 176.883C271.862 176.546 271.713 176.29 271.415 176.114C271.225 176.007 270.849 175.882 270.287 175.741L269.24 175.477C268.571 175.311 268.078 175.125 267.76 174.92C267.194 174.564 266.911 174.071 266.911 173.441C266.911 172.699 267.177 172.098 267.709 171.639C268.246 171.18 268.966 170.951 269.87 170.951C271.051 170.951 271.903 171.297 272.426 171.991C272.753 172.43 272.912 172.904 272.902 173.412H271.657C271.632 173.114 271.527 172.843 271.342 172.599C271.039 172.252 270.514 172.079 269.767 172.079C269.269 172.079 268.891 172.174 268.632 172.364C268.378 172.555 268.251 172.806 268.251 173.119C268.251 173.46 268.419 173.734 268.756 173.939C268.952 174.061 269.24 174.168 269.621 174.261L270.492 174.474C271.439 174.703 272.074 174.925 272.396 175.14C272.909 175.477 273.166 176.007 273.166 176.729C273.166 177.428 272.899 178.031 272.367 178.539C271.84 179.046 271.034 179.3 269.95 179.3C268.783 179.3 267.956 179.037 267.467 178.509C266.984 177.977 266.725 177.32 266.691 176.539H267.958ZM277.787 178.15C278.661 178.15 279.259 177.821 279.582 177.162C279.909 176.498 280.072 175.76 280.072 174.95C280.072 174.217 279.955 173.622 279.721 173.163C279.35 172.44 278.71 172.079 277.802 172.079C276.996 172.079 276.41 172.386 276.044 173.001C275.678 173.617 275.495 174.359 275.495 175.228C275.495 176.063 275.678 176.759 276.044 177.315C276.41 177.872 276.991 178.15 277.787 178.15ZM277.838 170.929C278.849 170.929 279.704 171.266 280.402 171.939C281.1 172.613 281.449 173.604 281.449 174.913C281.449 176.178 281.142 177.223 280.526 178.048C279.911 178.873 278.957 179.286 277.663 179.286C276.583 179.286 275.727 178.922 275.092 178.194C274.457 177.462 274.14 176.48 274.14 175.25C274.14 173.932 274.474 172.882 275.143 172.101C275.812 171.319 276.71 170.929 277.838 170.929ZM283.061 171.156H284.313V172.511C284.416 172.247 284.667 171.927 285.067 171.551C285.468 171.17 285.929 170.98 286.452 170.98C286.476 170.98 286.518 170.982 286.576 170.987C286.635 170.992 286.735 171.002 286.876 171.017V172.408C286.798 172.394 286.725 172.384 286.657 172.379C286.593 172.374 286.522 172.372 286.444 172.372C285.78 172.372 285.27 172.586 284.914 173.016C284.557 173.441 284.379 173.932 284.379 174.488V179H283.061V171.156ZM291.286 170.98C291.842 170.98 292.382 171.112 292.904 171.375C293.427 171.634 293.825 171.971 294.098 172.386C294.362 172.782 294.538 173.243 294.625 173.771C294.704 174.132 294.743 174.708 294.743 175.499H288.993C289.018 176.295 289.206 176.935 289.557 177.418C289.909 177.896 290.453 178.136 291.19 178.136C291.879 178.136 292.428 177.909 292.838 177.455C293.073 177.191 293.239 176.886 293.336 176.539H294.633C294.599 176.827 294.484 177.149 294.289 177.506C294.098 177.857 293.883 178.146 293.644 178.37C293.244 178.761 292.748 179.024 292.157 179.161C291.84 179.239 291.481 179.278 291.081 179.278C290.104 179.278 289.276 178.924 288.598 178.216C287.919 177.503 287.58 176.507 287.58 175.228C287.58 173.968 287.921 172.945 288.605 172.159C289.289 171.373 290.182 170.98 291.286 170.98ZM293.388 174.452C293.334 173.88 293.209 173.424 293.014 173.082C292.653 172.447 292.05 172.13 291.205 172.13C290.6 172.13 290.092 172.35 289.682 172.789C289.271 173.224 289.054 173.778 289.03 174.452H293.388ZM297.204 175.169C297.204 176.009 297.382 176.712 297.738 177.279C298.095 177.845 298.666 178.128 299.452 178.128C300.062 178.128 300.563 177.867 300.954 177.345C301.349 176.817 301.547 176.063 301.547 175.082C301.547 174.09 301.344 173.358 300.939 172.884C300.534 172.406 300.033 172.167 299.438 172.167C298.773 172.167 298.234 172.42 297.819 172.928C297.409 173.436 297.204 174.183 297.204 175.169ZM299.188 171.017C299.789 171.017 300.292 171.144 300.697 171.397C300.932 171.544 301.198 171.8 301.496 172.167V168.204H302.763V179H301.576V177.909C301.269 178.392 300.905 178.741 300.485 178.956C300.065 179.171 299.584 179.278 299.042 179.278C298.168 179.278 297.411 178.912 296.771 178.18C296.132 177.442 295.812 176.463 295.812 175.243C295.812 174.1 296.103 173.111 296.684 172.276C297.27 171.437 298.104 171.017 299.188 171.017ZM312.809 167.625V179H311.387V167.625H312.809ZM315.801 167.625V168.859H308.403V167.625H315.801ZM319.536 179.156C319.03 179.156 318.575 179.081 318.168 178.93C317.762 178.779 317.416 178.549 317.129 178.242C316.843 177.93 316.624 177.536 316.473 177.062C316.322 176.589 316.247 176.029 316.247 175.383V174.43C316.247 173.685 316.333 173.055 316.504 172.539C316.681 172.023 316.918 171.609 317.215 171.297C317.512 170.979 317.848 170.75 318.223 170.609C318.598 170.464 318.984 170.391 319.379 170.391C319.911 170.391 320.364 170.477 320.739 170.648C321.114 170.82 321.418 171.076 321.653 171.414C321.887 171.753 322.059 172.169 322.168 172.664C322.283 173.159 322.34 173.729 322.34 174.375V175.18H317.059V174H320.958V173.805C320.937 173.367 320.877 172.982 320.778 172.648C320.684 172.315 320.528 172.055 320.309 171.867C320.09 171.674 319.78 171.578 319.379 171.578C319.124 171.578 318.887 171.622 318.668 171.711C318.455 171.794 318.27 171.943 318.114 172.156C317.963 172.365 317.843 172.654 317.754 173.023C317.671 173.393 317.629 173.862 317.629 174.43V175.383C317.629 175.836 317.671 176.227 317.754 176.555C317.843 176.878 317.971 177.146 318.137 177.359C318.309 177.568 318.517 177.724 318.762 177.828C319.012 177.927 319.296 177.977 319.614 177.977C320.077 177.977 320.46 177.888 320.762 177.711C321.064 177.529 321.327 177.297 321.551 177.016L322.278 177.883C322.127 178.096 321.929 178.302 321.684 178.5C321.444 178.693 321.148 178.852 320.793 178.977C320.444 179.096 320.025 179.156 319.536 179.156ZM328.153 177.555V172.969C328.153 172.635 328.101 172.367 327.997 172.164C327.898 171.961 327.747 171.812 327.543 171.719C327.346 171.625 327.096 171.578 326.793 171.578C326.502 171.578 326.249 171.638 326.036 171.758C325.827 171.878 325.666 172.036 325.551 172.234C325.442 172.432 325.387 172.651 325.387 172.891H324.004C324.004 172.589 324.069 172.289 324.2 171.992C324.335 171.695 324.528 171.427 324.778 171.188C325.028 170.943 325.327 170.75 325.676 170.609C326.03 170.464 326.426 170.391 326.864 170.391C327.385 170.391 327.846 170.477 328.247 170.648C328.648 170.815 328.963 171.089 329.192 171.469C329.421 171.849 329.536 172.354 329.536 172.984V177.156C329.536 177.438 329.556 177.737 329.598 178.055C329.645 178.372 329.71 178.646 329.793 178.875V179H328.364C328.296 178.833 328.244 178.612 328.208 178.336C328.171 178.055 328.153 177.794 328.153 177.555ZM328.372 173.875L328.387 174.891H327.426C327.098 174.891 326.799 174.927 326.528 175C326.262 175.073 326.033 175.18 325.84 175.32C325.648 175.456 325.499 175.625 325.395 175.828C325.296 176.031 325.247 176.263 325.247 176.523C325.247 176.862 325.293 177.133 325.387 177.336C325.481 177.534 325.622 177.677 325.809 177.766C325.997 177.854 326.234 177.898 326.52 177.898C326.869 177.898 327.176 177.818 327.442 177.656C327.708 177.495 327.913 177.299 328.059 177.07C328.21 176.841 328.28 176.628 328.27 176.43L328.575 177.078C328.554 177.281 328.486 177.503 328.372 177.742C328.262 177.977 328.109 178.203 327.911 178.422C327.713 178.635 327.478 178.812 327.208 178.953C326.942 179.089 326.642 179.156 326.309 179.156C325.819 179.156 325.39 179.062 325.02 178.875C324.655 178.688 324.372 178.411 324.168 178.047C323.965 177.682 323.864 177.232 323.864 176.695C323.864 176.289 323.934 175.914 324.075 175.57C324.215 175.227 324.424 174.93 324.7 174.68C324.976 174.424 325.322 174.227 325.739 174.086C326.161 173.945 326.648 173.875 327.2 173.875H328.372ZM333.067 172.227V179H331.692V170.547H332.989L333.067 172.227ZM332.786 174.453L332.145 174.43C332.14 173.852 332.197 173.318 332.317 172.828C332.437 172.333 332.616 171.904 332.856 171.539C333.101 171.174 333.405 170.893 333.77 170.695C334.14 170.492 334.569 170.391 335.059 170.391C335.382 170.391 335.681 170.448 335.958 170.562C336.239 170.672 336.484 170.846 336.692 171.086C336.9 171.326 337.062 171.633 337.176 172.008C337.296 172.383 337.356 172.836 337.356 173.367V179H335.973V173.438C335.973 172.995 335.913 172.641 335.793 172.375C335.679 172.109 335.515 171.917 335.301 171.797C335.088 171.672 334.833 171.609 334.536 171.609C334.197 171.609 333.913 171.685 333.684 171.836C333.46 171.987 333.28 172.195 333.145 172.461C333.015 172.727 332.921 173.031 332.864 173.375C332.812 173.714 332.786 174.073 332.786 174.453ZM337.34 173.656L336.418 173.953C336.413 173.49 336.471 173.044 336.59 172.617C336.71 172.19 336.887 171.81 337.122 171.477C337.361 171.143 337.658 170.88 338.012 170.688C338.366 170.49 338.778 170.391 339.247 170.391C339.632 170.391 339.973 170.451 340.27 170.57C340.567 170.69 340.817 170.875 341.02 171.125C341.228 171.37 341.385 171.685 341.489 172.07C341.593 172.456 341.645 172.914 341.645 173.445V179H340.262V173.43C340.262 172.956 340.202 172.589 340.083 172.328C339.968 172.062 339.804 171.878 339.59 171.773C339.377 171.664 339.122 171.609 338.825 171.609C338.585 171.609 338.372 171.664 338.184 171.773C338.002 171.883 337.848 172.034 337.723 172.227C337.598 172.414 337.502 172.63 337.434 172.875C337.372 173.12 337.34 173.38 337.34 173.656ZM350.168 179H348.231L348.247 177.773H350.168C350.851 177.773 351.405 177.643 351.833 177.383C352.26 177.117 352.575 176.727 352.778 176.211C352.981 175.69 353.083 175.047 353.083 174.281V172.336C353.083 171.732 353.025 171.211 352.911 170.773C352.796 170.336 352.624 169.977 352.395 169.695C352.166 169.414 351.877 169.206 351.528 169.07C351.179 168.93 350.77 168.859 350.301 168.859H348.192V167.625H350.301C350.942 167.625 351.52 167.727 352.036 167.93C352.551 168.128 352.994 168.427 353.364 168.828C353.734 169.224 354.015 169.716 354.208 170.305C354.405 170.893 354.504 171.576 354.504 172.352V174.281C354.504 175.057 354.405 175.74 354.208 176.328C354.015 176.917 353.731 177.409 353.356 177.805C352.981 178.201 352.525 178.5 351.989 178.703C351.458 178.901 350.851 179 350.168 179ZM349.028 167.625V179H347.59V167.625H349.028ZM359.567 179.156C359.062 179.156 358.606 179.081 358.2 178.93C357.793 178.779 357.447 178.549 357.161 178.242C356.874 177.93 356.655 177.536 356.504 177.062C356.353 176.589 356.278 176.029 356.278 175.383V174.43C356.278 173.685 356.364 173.055 356.536 172.539C356.713 172.023 356.95 171.609 357.247 171.297C357.543 170.979 357.879 170.75 358.254 170.609C358.629 170.464 359.015 170.391 359.411 170.391C359.942 170.391 360.395 170.477 360.77 170.648C361.145 170.82 361.45 171.076 361.684 171.414C361.918 171.753 362.09 172.169 362.2 172.664C362.314 173.159 362.372 173.729 362.372 174.375V175.18H357.09V174H360.989V173.805C360.968 173.367 360.908 172.982 360.809 172.648C360.715 172.315 360.559 172.055 360.34 171.867C360.122 171.674 359.812 171.578 359.411 171.578C359.155 171.578 358.918 171.622 358.7 171.711C358.486 171.794 358.301 171.943 358.145 172.156C357.994 172.365 357.874 172.654 357.786 173.023C357.702 173.393 357.661 173.862 357.661 174.43V175.383C357.661 175.836 357.702 176.227 357.786 176.555C357.874 176.878 358.002 177.146 358.168 177.359C358.34 177.568 358.549 177.724 358.793 177.828C359.043 177.927 359.327 177.977 359.645 177.977C360.109 177.977 360.491 177.888 360.793 177.711C361.096 177.529 361.359 177.297 361.583 177.016L362.309 177.883C362.158 178.096 361.96 178.302 361.715 178.5C361.476 178.693 361.179 178.852 360.825 178.977C360.476 179.096 360.056 179.156 359.567 179.156ZM365.809 179H364.426V169.812C364.426 169.172 364.533 168.63 364.747 168.188C364.965 167.745 365.275 167.409 365.676 167.18C366.083 166.951 366.562 166.836 367.114 166.836C367.442 166.836 367.757 166.883 368.059 166.977C368.361 167.065 368.674 167.177 368.997 167.312L368.762 168.531C368.575 168.438 368.346 168.349 368.075 168.266C367.804 168.177 367.52 168.133 367.223 168.133C366.702 168.133 366.335 168.273 366.122 168.555C365.913 168.831 365.809 169.25 365.809 169.812V179ZM367.176 170.547V171.656H363.325V170.547H367.176ZM369.661 170.547V179H368.278V170.547H369.661ZM376.028 177.555V172.969C376.028 172.635 375.976 172.367 375.872 172.164C375.773 171.961 375.622 171.812 375.418 171.719C375.221 171.625 374.971 171.578 374.668 171.578C374.377 171.578 374.124 171.638 373.911 171.758C373.702 171.878 373.541 172.036 373.426 172.234C373.317 172.432 373.262 172.651 373.262 172.891H371.879C371.879 172.589 371.944 172.289 372.075 171.992C372.21 171.695 372.403 171.427 372.653 171.188C372.903 170.943 373.202 170.75 373.551 170.609C373.905 170.464 374.301 170.391 374.739 170.391C375.26 170.391 375.721 170.477 376.122 170.648C376.523 170.815 376.838 171.089 377.067 171.469C377.296 171.849 377.411 172.354 377.411 172.984V177.156C377.411 177.438 377.431 177.737 377.473 178.055C377.52 178.372 377.585 178.646 377.668 178.875V179H376.239C376.171 178.833 376.119 178.612 376.083 178.336C376.046 178.055 376.028 177.794 376.028 177.555ZM376.247 173.875L376.262 174.891H375.301C374.973 174.891 374.674 174.927 374.403 175C374.137 175.073 373.908 175.18 373.715 175.32C373.523 175.456 373.374 175.625 373.27 175.828C373.171 176.031 373.122 176.263 373.122 176.523C373.122 176.862 373.168 177.133 373.262 177.336C373.356 177.534 373.497 177.677 373.684 177.766C373.872 177.854 374.109 177.898 374.395 177.898C374.744 177.898 375.051 177.818 375.317 177.656C375.583 177.495 375.788 177.299 375.934 177.07C376.085 176.841 376.155 176.628 376.145 176.43L376.45 177.078C376.429 177.281 376.361 177.503 376.247 177.742C376.137 177.977 375.984 178.203 375.786 178.422C375.588 178.635 375.353 178.812 375.083 178.953C374.817 179.089 374.517 179.156 374.184 179.156C373.694 179.156 373.265 179.062 372.895 178.875C372.53 178.688 372.247 178.411 372.043 178.047C371.84 177.682 371.739 177.232 371.739 176.695C371.739 176.289 371.809 175.914 371.95 175.57C372.09 175.227 372.299 174.93 372.575 174.68C372.851 174.424 373.197 174.227 373.614 174.086C374.036 173.945 374.523 173.875 375.075 173.875H376.247ZM382.489 177.977C382.765 177.977 383.015 177.922 383.239 177.812C383.468 177.698 383.655 177.521 383.801 177.281C383.947 177.036 384.03 176.719 384.051 176.328H385.348C385.327 176.891 385.184 177.385 384.918 177.812C384.658 178.234 384.314 178.565 383.887 178.805C383.465 179.039 382.999 179.156 382.489 179.156C381.942 179.156 381.465 179.068 381.059 178.891C380.658 178.714 380.325 178.458 380.059 178.125C379.799 177.786 379.603 177.378 379.473 176.898C379.343 176.414 379.278 175.865 379.278 175.25V174.297C379.278 173.682 379.343 173.135 379.473 172.656C379.603 172.172 379.799 171.763 380.059 171.43C380.325 171.091 380.658 170.833 381.059 170.656C381.465 170.479 381.942 170.391 382.489 170.391C383.062 170.391 383.556 170.513 383.973 170.758C384.395 170.997 384.723 171.346 384.958 171.805C385.197 172.258 385.327 172.807 385.348 173.453H384.051C384.03 173.036 383.955 172.69 383.825 172.414C383.694 172.133 383.517 171.924 383.293 171.789C383.069 171.648 382.801 171.578 382.489 171.578C382.124 171.578 381.822 171.643 381.583 171.773C381.348 171.898 381.163 172.081 381.028 172.32C380.892 172.56 380.796 172.846 380.739 173.18C380.687 173.513 380.661 173.885 380.661 174.297V175.25C380.661 175.661 380.687 176.036 380.739 176.375C380.796 176.708 380.89 176.995 381.02 177.234C381.155 177.474 381.343 177.659 381.583 177.789C381.822 177.914 382.124 177.977 382.489 177.977ZM390.036 170.547V171.656H386.09V170.547H390.036ZM387.379 168.492H388.762V176.906C388.762 177.193 388.796 177.409 388.864 177.555C388.937 177.701 389.028 177.797 389.137 177.844C389.247 177.891 389.364 177.914 389.489 177.914C389.583 177.914 389.687 177.904 389.801 177.883C389.916 177.857 389.994 177.836 390.036 177.82L390.028 179C389.934 179.036 389.809 179.07 389.653 179.102C389.497 179.138 389.299 179.156 389.059 179.156C388.762 179.156 388.486 179.086 388.231 178.945C387.976 178.805 387.77 178.57 387.614 178.242C387.458 177.909 387.379 177.461 387.379 176.898V168.492Z" fill="black"/>
<path d="M177.21 124.737C178.845 124.737 180.113 125.168 181.016 126.029C181.918 126.891 182.419 127.869 182.519 128.965H180.813C180.62 128.133 180.233 127.474 179.653 126.987C179.079 126.501 178.271 126.258 177.228 126.258C175.956 126.258 174.928 126.706 174.143 127.603C173.363 128.493 172.974 129.861 172.974 131.707C172.974 133.219 173.325 134.446 174.028 135.39C174.737 136.327 175.792 136.796 177.192 136.796C178.481 136.796 179.463 136.301 180.137 135.311C180.494 134.789 180.761 134.104 180.937 133.254H182.642C182.489 134.613 181.985 135.753 181.13 136.673C180.104 137.78 178.722 138.334 176.981 138.334C175.481 138.334 174.222 137.88 173.202 136.972C171.86 135.771 171.189 133.916 171.189 131.408C171.189 129.504 171.693 127.942 172.701 126.724C173.791 125.399 175.294 124.737 177.21 124.737ZM188.302 136.98C189.351 136.98 190.068 136.585 190.455 135.794C190.848 134.997 191.044 134.112 191.044 133.14C191.044 132.261 190.903 131.546 190.622 130.995C190.177 130.128 189.409 129.694 188.319 129.694C187.353 129.694 186.649 130.063 186.21 130.802C185.771 131.54 185.551 132.431 185.551 133.474C185.551 134.476 185.771 135.311 186.21 135.979C186.649 136.646 187.347 136.98 188.302 136.98ZM188.363 128.314C189.576 128.314 190.602 128.719 191.439 129.527C192.277 130.336 192.696 131.525 192.696 133.096C192.696 134.613 192.327 135.867 191.589 136.857C190.851 137.848 189.705 138.343 188.152 138.343C186.857 138.343 185.829 137.906 185.067 137.033C184.306 136.154 183.925 134.977 183.925 133.5C183.925 131.918 184.326 130.658 185.129 129.721C185.932 128.783 187.01 128.314 188.363 128.314ZM194.586 128.587H196.089V129.923C196.534 129.372 197.006 128.977 197.504 128.736C198.002 128.496 198.556 128.376 199.165 128.376C200.501 128.376 201.403 128.842 201.872 129.773C202.13 130.283 202.259 131.013 202.259 131.962V138H200.65V132.067C200.65 131.493 200.565 131.03 200.396 130.679C200.114 130.093 199.604 129.8 198.866 129.8C198.491 129.8 198.184 129.838 197.943 129.914C197.51 130.043 197.129 130.301 196.801 130.688C196.537 130.998 196.364 131.32 196.282 131.654C196.206 131.982 196.168 132.454 196.168 133.069V138H194.586V128.587ZM207.928 128.42C208.666 128.42 209.311 128.602 209.861 128.965C210.16 129.17 210.465 129.469 210.775 129.861V128.675H212.234V137.235C212.234 138.431 212.059 139.374 211.707 140.065C211.051 141.343 209.812 141.981 207.989 141.981C206.976 141.981 206.123 141.753 205.432 141.296C204.74 140.845 204.354 140.136 204.271 139.169H205.88C205.956 139.591 206.108 139.916 206.337 140.145C206.694 140.496 207.257 140.672 208.024 140.672C209.237 140.672 210.031 140.244 210.406 139.389C210.629 138.885 210.731 137.985 210.714 136.69C210.397 137.171 210.017 137.528 209.571 137.763C209.126 137.997 208.537 138.114 207.805 138.114C206.785 138.114 205.892 137.754 205.124 137.033C204.362 136.307 203.981 135.108 203.981 133.438C203.981 131.862 204.365 130.632 205.133 129.747C205.906 128.862 206.838 128.42 207.928 128.42ZM210.775 133.254C210.775 132.088 210.535 131.224 210.055 130.661C209.574 130.099 208.962 129.817 208.218 129.817C207.104 129.817 206.343 130.339 205.933 131.382C205.716 131.938 205.607 132.668 205.607 133.57C205.607 134.631 205.821 135.439 206.249 135.996C206.683 136.547 207.263 136.822 207.989 136.822C209.126 136.822 209.926 136.31 210.389 135.284C210.646 134.704 210.775 134.027 210.775 133.254ZM214.669 128.587H216.172V130.213C216.295 129.896 216.597 129.513 217.077 129.062C217.558 128.604 218.111 128.376 218.738 128.376C218.768 128.376 218.817 128.379 218.888 128.385C218.958 128.391 219.078 128.402 219.248 128.42V130.09C219.154 130.072 219.066 130.061 218.984 130.055C218.908 130.049 218.823 130.046 218.729 130.046C217.933 130.046 217.32 130.304 216.893 130.819C216.465 131.329 216.251 131.918 216.251 132.586V138H214.669V128.587ZM221.832 135.495C221.832 135.952 221.999 136.312 222.333 136.576C222.667 136.84 223.062 136.972 223.52 136.972C224.076 136.972 224.615 136.843 225.137 136.585C226.016 136.157 226.455 135.457 226.455 134.484V133.21C226.262 133.333 226.013 133.436 225.708 133.518C225.403 133.6 225.104 133.658 224.812 133.693L223.854 133.816C223.279 133.893 222.849 134.013 222.562 134.177C222.075 134.452 221.832 134.892 221.832 135.495ZM225.664 132.296C226.027 132.249 226.271 132.097 226.394 131.839C226.464 131.698 226.499 131.496 226.499 131.232C226.499 130.693 226.306 130.304 225.919 130.063C225.538 129.817 224.99 129.694 224.275 129.694C223.449 129.694 222.863 129.917 222.518 130.362C222.324 130.608 222.198 130.975 222.14 131.461H220.663C220.692 130.301 221.067 129.495 221.788 129.044C222.515 128.587 223.355 128.358 224.311 128.358C225.418 128.358 226.317 128.569 227.009 128.991C227.694 129.413 228.037 130.069 228.037 130.96V136.383C228.037 136.547 228.069 136.679 228.134 136.778C228.204 136.878 228.348 136.928 228.564 136.928C228.635 136.928 228.714 136.925 228.802 136.919C228.89 136.907 228.983 136.893 229.083 136.875V138.044C228.837 138.114 228.649 138.158 228.521 138.176C228.392 138.193 228.216 138.202 227.993 138.202C227.448 138.202 227.053 138.009 226.807 137.622C226.678 137.417 226.587 137.127 226.534 136.752C226.212 137.174 225.749 137.54 225.146 137.851C224.542 138.161 223.877 138.316 223.15 138.316C222.277 138.316 221.562 138.053 221.006 137.525C220.455 136.992 220.18 136.327 220.18 135.53C220.18 134.657 220.452 133.98 220.997 133.5C221.542 133.02 222.257 132.724 223.142 132.612L225.664 132.296ZM230.955 125.959H232.555V128.587H234.058V129.879H232.555V136.022C232.555 136.351 232.666 136.57 232.889 136.682C233.012 136.746 233.217 136.778 233.504 136.778C233.58 136.778 233.662 136.778 233.75 136.778C233.838 136.772 233.94 136.764 234.058 136.752V138C233.876 138.053 233.686 138.091 233.486 138.114C233.293 138.138 233.082 138.149 232.854 138.149C232.115 138.149 231.614 137.962 231.351 137.587C231.087 137.206 230.955 136.714 230.955 136.11V129.879H229.681V128.587H230.955V125.959ZM237.23 128.587V134.836C237.23 135.316 237.307 135.709 237.459 136.014C237.74 136.576 238.265 136.857 239.032 136.857C240.134 136.857 240.884 136.365 241.282 135.381C241.499 134.854 241.607 134.13 241.607 133.21V128.587H243.189V138H241.695L241.713 136.611C241.508 136.969 241.253 137.271 240.948 137.517C240.345 138.009 239.612 138.255 238.751 138.255C237.409 138.255 236.495 137.807 236.009 136.91C235.745 136.43 235.613 135.788 235.613 134.985V128.587H237.23ZM245.712 125.089H247.294V138H245.712V125.089ZM250.889 135.495C250.889 135.952 251.056 136.312 251.39 136.576C251.724 136.84 252.119 136.972 252.576 136.972C253.133 136.972 253.672 136.843 254.193 136.585C255.072 136.157 255.512 135.457 255.512 134.484V133.21C255.318 133.333 255.069 133.436 254.765 133.518C254.46 133.6 254.161 133.658 253.868 133.693L252.91 133.816C252.336 133.893 251.905 134.013 251.618 134.177C251.132 134.452 250.889 134.892 250.889 135.495ZM254.721 132.296C255.084 132.249 255.327 132.097 255.45 131.839C255.521 131.698 255.556 131.496 255.556 131.232C255.556 130.693 255.362 130.304 254.976 130.063C254.595 129.817 254.047 129.694 253.332 129.694C252.506 129.694 251.92 129.917 251.574 130.362C251.381 130.608 251.255 130.975 251.196 131.461H249.72C249.749 130.301 250.124 129.495 250.845 129.044C251.571 128.587 252.412 128.358 253.367 128.358C254.475 128.358 255.374 128.569 256.065 128.991C256.751 129.413 257.094 130.069 257.094 130.96V136.383C257.094 136.547 257.126 136.679 257.19 136.778C257.261 136.878 257.404 136.928 257.621 136.928C257.691 136.928 257.771 136.925 257.858 136.919C257.946 136.907 258.04 136.893 258.14 136.875V138.044C257.894 138.114 257.706 138.158 257.577 138.176C257.448 138.193 257.272 138.202 257.05 138.202C256.505 138.202 256.109 138.009 255.863 137.622C255.734 137.417 255.644 137.127 255.591 136.752C255.269 137.174 254.806 137.54 254.202 137.851C253.599 138.161 252.934 138.316 252.207 138.316C251.334 138.316 250.619 138.053 250.062 137.525C249.512 136.992 249.236 136.327 249.236 135.53C249.236 134.657 249.509 133.98 250.054 133.5C250.599 133.02 251.313 132.724 252.198 132.612L254.721 132.296ZM260.012 125.959H261.611V128.587H263.114V129.879H261.611V136.022C261.611 136.351 261.723 136.57 261.945 136.682C262.068 136.746 262.273 136.778 262.561 136.778C262.637 136.778 262.719 136.778 262.807 136.778C262.895 136.772 262.997 136.764 263.114 136.752V138C262.933 138.053 262.742 138.091 262.543 138.114C262.35 138.138 262.139 138.149 261.91 138.149C261.172 138.149 260.671 137.962 260.407 137.587C260.144 137.206 260.012 136.714 260.012 136.11V129.879H258.737V128.587H260.012V125.959ZM264.705 128.631H266.313V138H264.705V128.631ZM264.705 125.089H266.313V126.882H264.705V125.089ZM272.448 136.98C273.497 136.98 274.215 136.585 274.602 135.794C274.994 134.997 275.19 134.112 275.19 133.14C275.19 132.261 275.05 131.546 274.769 130.995C274.323 130.128 273.556 129.694 272.466 129.694C271.499 129.694 270.796 130.063 270.356 130.802C269.917 131.54 269.697 132.431 269.697 133.474C269.697 134.476 269.917 135.311 270.356 135.979C270.796 136.646 271.493 136.98 272.448 136.98ZM272.51 128.314C273.723 128.314 274.748 128.719 275.586 129.527C276.424 130.336 276.843 131.525 276.843 133.096C276.843 134.613 276.474 135.867 275.735 136.857C274.997 137.848 273.852 138.343 272.299 138.343C271.004 138.343 269.976 137.906 269.214 137.033C268.452 136.154 268.071 134.977 268.071 133.5C268.071 131.918 268.473 130.658 269.275 129.721C270.078 128.783 271.156 128.314 272.51 128.314ZM278.732 128.587H280.235V129.923C280.681 129.372 281.152 128.977 281.65 128.736C282.148 128.496 282.702 128.376 283.312 128.376C284.647 128.376 285.55 128.842 286.019 129.773C286.276 130.283 286.405 131.013 286.405 131.962V138H284.797V132.067C284.797 131.493 284.712 131.03 284.542 130.679C284.261 130.093 283.751 129.8 283.013 129.8C282.638 129.8 282.33 129.838 282.09 129.914C281.656 130.043 281.275 130.301 280.947 130.688C280.684 130.998 280.511 131.32 280.429 131.654C280.353 131.982 280.314 132.454 280.314 133.069V138H278.732V128.587ZM289.692 135.047C289.739 135.574 289.871 135.979 290.088 136.26C290.486 136.77 291.178 137.024 292.162 137.024C292.748 137.024 293.264 136.898 293.709 136.646C294.154 136.389 294.377 135.993 294.377 135.46C294.377 135.056 294.198 134.748 293.841 134.537C293.612 134.408 293.161 134.259 292.487 134.089L291.23 133.772C290.428 133.573 289.836 133.351 289.455 133.104C288.775 132.677 288.436 132.085 288.436 131.329C288.436 130.438 288.755 129.718 289.394 129.167C290.038 128.616 290.902 128.341 291.986 128.341C293.404 128.341 294.427 128.757 295.054 129.589C295.446 130.116 295.637 130.685 295.625 131.294H294.131C294.102 130.937 293.976 130.611 293.753 130.318C293.39 129.902 292.76 129.694 291.863 129.694C291.266 129.694 290.812 129.809 290.501 130.037C290.196 130.266 290.044 130.567 290.044 130.942C290.044 131.353 290.246 131.681 290.65 131.927C290.885 132.073 291.23 132.202 291.688 132.313L292.733 132.568C293.87 132.844 294.632 133.11 295.019 133.368C295.634 133.772 295.941 134.408 295.941 135.275C295.941 136.113 295.622 136.837 294.983 137.446C294.351 138.056 293.384 138.36 292.083 138.36C290.683 138.36 289.689 138.044 289.104 137.411C288.523 136.772 288.213 135.984 288.172 135.047H289.692ZM298.675 125.089H300.459V129.334L300.028 134.924H299.132L298.675 129.334V125.089ZM298.675 136.172H300.424V138H298.675V136.172Z" fill="black"/>
<circle cx="235.5" cy="61.5" r="26.5" fill="#81E880"/>
<path d="M231.59 71.2954L222.978 62.7118C222.46 62.1961 222.46 61.36 222.978 60.8443L224.852 58.9767C225.369 58.461 226.208 58.461 226.726 58.9767L232.527 64.759L244.954 52.3739C245.472 51.8583 246.311 51.8583 246.828 52.3739L248.702 54.2415C249.219 54.7572 249.219 55.5933 248.702 56.109L233.464 71.2955C232.947 71.8112 232.108 71.8112 231.59 71.2954Z" fill="white"/>
<defs>
<filter id="filter0_d_333_15" x="0" y="0" width="460" height="252" filterUnits="userSpaceOnUse" color-interpolation-filters="sRGB">
<feFlood flood-opacity="0" result="BackgroundImageFix"/>
<feColorMatrix in="SourceAlpha" type="matrix" values="0 0 0 0 0 0 0 0 0 0 0 0 0 0 0 0 0 0 127 0" result="hardAlpha"/>
<feOffset dy="4"/>
<feGaussianBlur stdDeviation="2"/>
<feComposite in2="hardAlpha" operator="out"/>
<feColorMatrix type="matrix" values="0 0 0 0 0 0 0 0 0 0 0 0 0 0 0 0 0 0 0.25 0"/>
<feBlend mode="normal" in2="BackgroundImageFix" result="effect1_dropShadow_333_15"/>
<feBlend mode="normal" in="SourceGraphic" in2="effect1_dropShadow_333_15" result="shape"/>
</filter>
<filter id="filter1_b_333_15" x="-50.3656" y="-54.3656" width="560.731" height="352.731" filterUnits="userSpaceOnUse" color-interpolation-filters="sRGB">
<feFlood flood-opacity="0" result="BackgroundImageFix"/>
<feGaussianBlur in="BackgroundImage" stdDeviation="27.1828"/>
<feComposite in2="SourceAlpha" operator="in" result="effect1_backgroundBlur_333_15"/>
<feBlend mode="normal" in="SourceGraphic" in2="effect1_backgroundBlur_333_15" result="shape"/>
</filter>
</defs>
</svg>
