<svg width="460" height="252" viewBox="0 0 460 252" fill="none" xmlns="http://www.w3.org/2000/svg">
<g filter="url(#filter0_d_333_21)">
<g filter="url(#filter1_b_333_21)">
<rect x="4" width="452" height="244" rx="20" fill="#F9F9F9" fill-opacity="0.78"/>
</g>
</g>
<circle cx="229.5" cy="78.5" r="7.5" fill="#AE7ACC" fill-opacity="0.6"/>
<circle cx="279.5" cy="78.5" r="7.5" fill="#AE7ACC"/>
<circle cx="179.5" cy="78.5" r="7.5" fill="#AE7ACC" fill-opacity="0.2"/>
<path d="M110.161 144.737C111.796 144.737 113.064 145.168 113.967 146.029C114.869 146.891 115.37 147.869 115.47 148.965H113.765C113.571 148.133 113.185 147.474 112.604 146.987C112.03 146.501 111.222 146.258 110.179 146.258C108.907 146.258 107.879 146.706 107.094 147.603C106.314 148.493 105.925 149.861 105.925 151.707C105.925 153.219 106.276 154.446 106.979 155.39C107.688 156.327 108.743 156.796 110.144 156.796C111.433 156.796 112.414 156.301 113.088 155.311C113.445 154.789 113.712 154.104 113.888 153.254H115.593C115.44 154.613 114.937 155.753 114.081 156.673C113.056 157.78 111.673 158.334 109.933 158.334C108.433 158.334 107.173 157.88 106.153 156.972C104.812 155.771 104.141 153.916 104.141 151.408C104.141 149.504 104.645 147.942 105.652 146.724C106.742 145.399 108.245 144.737 110.161 144.737ZM118.73 155.495C118.73 155.952 118.897 156.312 119.231 156.576C119.565 156.84 119.961 156.972 120.418 156.972C120.975 156.972 121.514 156.843 122.035 156.585C122.914 156.157 123.354 155.457 123.354 154.484V153.21C123.16 153.333 122.911 153.436 122.606 153.518C122.302 153.6 122.003 153.658 121.71 153.693L120.752 153.816C120.178 153.893 119.747 154.013 119.46 154.177C118.974 154.452 118.73 154.892 118.73 155.495ZM122.562 152.296C122.926 152.249 123.169 152.097 123.292 151.839C123.362 151.698 123.397 151.496 123.397 151.232C123.397 150.693 123.204 150.304 122.817 150.063C122.437 149.817 121.889 149.694 121.174 149.694C120.348 149.694 119.762 149.917 119.416 150.362C119.223 150.608 119.097 150.975 119.038 151.461H117.562C117.591 150.301 117.966 149.495 118.687 149.044C119.413 148.587 120.254 148.358 121.209 148.358C122.316 148.358 123.216 148.569 123.907 148.991C124.593 149.413 124.936 150.069 124.936 150.96V156.383C124.936 156.547 124.968 156.679 125.032 156.778C125.103 156.878 125.246 156.928 125.463 156.928C125.533 156.928 125.612 156.925 125.7 156.919C125.788 156.907 125.882 156.893 125.981 156.875V158.044C125.735 158.114 125.548 158.158 125.419 158.176C125.29 158.193 125.114 158.202 124.892 158.202C124.347 158.202 123.951 158.009 123.705 157.622C123.576 157.417 123.485 157.127 123.433 156.752C123.11 157.174 122.647 157.54 122.044 157.851C121.44 158.161 120.775 158.316 120.049 158.316C119.176 158.316 118.461 158.053 117.904 157.525C117.354 156.992 117.078 156.327 117.078 155.53C117.078 154.657 117.351 153.98 117.896 153.5C118.44 153.02 119.155 152.724 120.04 152.612L122.562 152.296ZM127.581 145.089H129.163V158H127.581V145.089ZM135.175 148.314C136.235 148.314 137.097 148.572 137.759 149.088C138.427 149.604 138.828 150.491 138.963 151.751H137.425C137.331 151.171 137.117 150.69 136.783 150.31C136.449 149.923 135.913 149.729 135.175 149.729C134.167 149.729 133.446 150.222 133.013 151.206C132.731 151.845 132.591 152.633 132.591 153.57C132.591 154.514 132.79 155.308 133.188 155.952C133.587 156.597 134.214 156.919 135.069 156.919C135.726 156.919 136.244 156.72 136.625 156.321C137.012 155.917 137.278 155.366 137.425 154.669H138.963C138.787 155.917 138.348 156.831 137.645 157.411C136.941 157.985 136.042 158.272 134.946 158.272C133.716 158.272 132.734 157.824 132.002 156.928C131.27 156.025 130.903 154.9 130.903 153.553C130.903 151.9 131.305 150.614 132.107 149.694C132.91 148.774 133.933 148.314 135.175 148.314ZM142.127 148.587V154.836C142.127 155.316 142.203 155.709 142.355 156.014C142.637 156.576 143.161 156.857 143.929 156.857C145.03 156.857 145.78 156.365 146.179 155.381C146.396 154.854 146.504 154.13 146.504 153.21V148.587H148.086V158H146.592L146.609 156.611C146.404 156.969 146.149 157.271 145.845 157.517C145.241 158.009 144.509 158.255 143.647 158.255C142.306 158.255 141.392 157.807 140.905 156.91C140.642 156.43 140.51 155.788 140.51 154.985V148.587H142.127ZM150.608 145.089H152.19V158H150.608V145.089ZM155.785 155.495C155.785 155.952 155.952 156.312 156.286 156.576C156.62 156.84 157.016 156.972 157.473 156.972C158.029 156.972 158.568 156.843 159.09 156.585C159.969 156.157 160.408 155.457 160.408 154.484V153.21C160.215 153.333 159.966 153.436 159.661 153.518C159.356 153.6 159.058 153.658 158.765 153.693L157.807 153.816C157.232 153.893 156.802 154.013 156.515 154.177C156.028 154.452 155.785 154.892 155.785 155.495ZM159.617 152.296C159.98 152.249 160.224 152.097 160.347 151.839C160.417 151.698 160.452 151.496 160.452 151.232C160.452 150.693 160.259 150.304 159.872 150.063C159.491 149.817 158.943 149.694 158.229 149.694C157.402 149.694 156.816 149.917 156.471 150.362C156.277 150.608 156.151 150.975 156.093 151.461H154.616C154.646 150.301 155.021 149.495 155.741 149.044C156.468 148.587 157.309 148.358 158.264 148.358C159.371 148.358 160.271 148.569 160.962 148.991C161.647 149.413 161.99 150.069 161.99 150.96V156.383C161.99 156.547 162.022 156.679 162.087 156.778C162.157 156.878 162.301 156.928 162.518 156.928C162.588 156.928 162.667 156.925 162.755 156.919C162.843 156.907 162.937 156.893 163.036 156.875V158.044C162.79 158.114 162.603 158.158 162.474 158.176C162.345 158.193 162.169 158.202 161.946 158.202C161.401 158.202 161.006 158.009 160.76 157.622C160.631 157.417 160.54 157.127 160.487 156.752C160.165 157.174 159.702 157.54 159.099 157.851C158.495 158.161 157.83 158.316 157.104 158.316C156.23 158.316 155.516 158.053 154.959 157.525C154.408 156.992 154.133 156.327 154.133 155.53C154.133 154.657 154.405 153.98 154.95 153.5C155.495 153.02 156.21 152.724 157.095 152.612L159.617 152.296ZM164.908 145.959H166.508V148.587H168.011V149.879H166.508V156.022C166.508 156.351 166.619 156.57 166.842 156.682C166.965 156.746 167.17 156.778 167.457 156.778C167.533 156.778 167.615 156.778 167.703 156.778C167.791 156.772 167.894 156.764 168.011 156.752V158C167.829 158.053 167.639 158.091 167.439 158.114C167.246 158.138 167.035 158.149 166.807 158.149C166.068 158.149 165.567 157.962 165.304 157.587C165.04 157.206 164.908 156.714 164.908 156.11V149.879H163.634V148.587H164.908V145.959ZM169.602 148.631H171.21V158H169.602V148.631ZM169.602 145.089H171.21V146.882H169.602V145.089ZM173.609 148.587H175.112V149.923C175.558 149.372 176.029 148.977 176.527 148.736C177.025 148.496 177.579 148.376 178.188 148.376C179.524 148.376 180.427 148.842 180.896 149.773C181.153 150.283 181.282 151.013 181.282 151.962V158H179.674V152.067C179.674 151.493 179.589 151.03 179.419 150.679C179.138 150.093 178.628 149.8 177.89 149.8C177.515 149.8 177.207 149.838 176.967 149.914C176.533 150.043 176.152 150.301 175.824 150.688C175.561 150.998 175.388 151.32 175.306 151.654C175.229 151.982 175.191 152.454 175.191 153.069V158H173.609V148.587ZM186.951 148.42C187.689 148.42 188.334 148.602 188.885 148.965C189.184 149.17 189.488 149.469 189.799 149.861V148.675H191.258V157.235C191.258 158.431 191.082 159.374 190.73 160.065C190.074 161.343 188.835 161.981 187.013 161.981C185.999 161.981 185.146 161.753 184.455 161.296C183.764 160.845 183.377 160.136 183.295 159.169H184.903C184.979 159.591 185.132 159.916 185.36 160.145C185.718 160.496 186.28 160.672 187.048 160.672C188.261 160.672 189.055 160.244 189.43 159.389C189.652 158.885 189.755 157.985 189.737 156.69C189.421 157.171 189.04 157.528 188.595 157.763C188.149 157.997 187.561 158.114 186.828 158.114C185.809 158.114 184.915 157.754 184.147 157.033C183.386 156.307 183.005 155.108 183.005 153.438C183.005 151.862 183.389 150.632 184.156 149.747C184.93 148.862 185.861 148.42 186.951 148.42ZM189.799 153.254C189.799 152.088 189.559 151.224 189.078 150.661C188.598 150.099 187.985 149.817 187.241 149.817C186.128 149.817 185.366 150.339 184.956 151.382C184.739 151.938 184.631 152.668 184.631 153.57C184.631 154.631 184.845 155.439 185.272 155.996C185.706 156.547 186.286 156.822 187.013 156.822C188.149 156.822 188.949 156.31 189.412 155.284C189.67 154.704 189.799 154.027 189.799 153.254ZM204.538 148.587H206.287C206.064 149.19 205.569 150.567 204.802 152.718C204.228 154.335 203.747 155.653 203.36 156.673C202.446 159.075 201.802 160.54 201.427 161.067C201.052 161.595 200.407 161.858 199.493 161.858C199.271 161.858 199.098 161.85 198.975 161.832C198.857 161.814 198.711 161.782 198.535 161.735V160.294C198.811 160.37 199.01 160.417 199.133 160.435C199.256 160.452 199.364 160.461 199.458 160.461C199.751 160.461 199.965 160.411 200.1 160.312C200.24 160.218 200.357 160.101 200.451 159.96C200.48 159.913 200.586 159.673 200.768 159.239C200.949 158.806 201.081 158.483 201.163 158.272L197.683 148.587H199.476L201.998 156.251L204.538 148.587ZM211.394 156.98C212.442 156.98 213.16 156.585 213.547 155.794C213.939 154.997 214.136 154.112 214.136 153.14C214.136 152.261 213.995 151.546 213.714 150.995C213.269 150.128 212.501 149.694 211.411 149.694C210.444 149.694 209.741 150.063 209.302 150.802C208.862 151.54 208.643 152.431 208.643 153.474C208.643 154.476 208.862 155.311 209.302 155.979C209.741 156.646 210.438 156.98 211.394 156.98ZM211.455 148.314C212.668 148.314 213.693 148.719 214.531 149.527C215.369 150.336 215.788 151.525 215.788 153.096C215.788 154.613 215.419 155.867 214.681 156.857C213.942 157.848 212.797 158.343 211.244 158.343C209.949 158.343 208.921 157.906 208.159 157.033C207.397 156.154 207.017 154.977 207.017 153.5C207.017 151.918 207.418 150.658 208.221 149.721C209.023 148.783 210.102 148.314 211.455 148.314ZM219.26 148.587V154.836C219.26 155.316 219.336 155.709 219.488 156.014C219.77 156.576 220.294 156.857 221.062 156.857C222.163 156.857 222.913 156.365 223.312 155.381C223.528 154.854 223.637 154.13 223.637 153.21V148.587H225.219V158H223.725L223.742 156.611C223.537 156.969 223.282 157.271 222.978 157.517C222.374 158.009 221.642 158.255 220.78 158.255C219.438 158.255 218.524 157.807 218.038 156.91C217.774 156.43 217.643 155.788 217.643 154.985V148.587H219.26ZM227.741 148.587H229.244V150.213C229.367 149.896 229.669 149.513 230.149 149.062C230.63 148.604 231.184 148.376 231.811 148.376C231.84 148.376 231.89 148.379 231.96 148.385C232.03 148.391 232.15 148.402 232.32 148.42V150.09C232.227 150.072 232.139 150.061 232.057 150.055C231.98 150.049 231.896 150.046 231.802 150.046C231.005 150.046 230.393 150.304 229.965 150.819C229.537 151.329 229.323 151.918 229.323 152.586V158H227.741V148.587ZM238.701 148.587H240.266V149.923C240.641 149.46 240.98 149.123 241.285 148.912C241.807 148.555 242.398 148.376 243.061 148.376C243.811 148.376 244.414 148.561 244.871 148.93C245.129 149.141 245.363 149.451 245.574 149.861C245.926 149.357 246.339 148.985 246.813 148.745C247.288 148.499 247.821 148.376 248.413 148.376C249.679 148.376 250.54 148.833 250.997 149.747C251.243 150.239 251.366 150.901 251.366 151.733V158H249.723V151.461C249.723 150.834 249.564 150.403 249.248 150.169C248.938 149.935 248.557 149.817 248.105 149.817C247.484 149.817 246.948 150.025 246.497 150.441C246.052 150.857 245.829 151.552 245.829 152.524V158H244.221V151.856C244.221 151.218 244.145 150.752 243.992 150.459C243.752 150.02 243.304 149.8 242.647 149.8C242.05 149.8 241.505 150.031 241.013 150.494C240.526 150.957 240.283 151.795 240.283 153.008V158H238.701V148.587ZM254.908 155.495C254.908 155.952 255.075 156.312 255.409 156.576C255.743 156.84 256.139 156.972 256.596 156.972C257.152 156.972 257.691 156.843 258.213 156.585C259.092 156.157 259.531 155.457 259.531 154.484V153.21C259.338 153.333 259.089 153.436 258.784 153.518C258.479 153.6 258.181 153.658 257.888 153.693L256.93 153.816C256.355 153.893 255.925 154.013 255.638 154.177C255.151 154.452 254.908 154.892 254.908 155.495ZM258.74 152.296C259.104 152.249 259.347 152.097 259.47 151.839C259.54 151.698 259.575 151.496 259.575 151.232C259.575 150.693 259.382 150.304 258.995 150.063C258.614 149.817 258.066 149.694 257.352 149.694C256.525 149.694 255.939 149.917 255.594 150.362C255.4 150.608 255.274 150.975 255.216 151.461H253.739C253.769 150.301 254.144 149.495 254.864 149.044C255.591 148.587 256.432 148.358 257.387 148.358C258.494 148.358 259.394 148.569 260.085 148.991C260.771 149.413 261.113 150.069 261.113 150.96V156.383C261.113 156.547 261.146 156.679 261.21 156.778C261.28 156.878 261.424 156.928 261.641 156.928C261.711 156.928 261.79 156.925 261.878 156.919C261.966 156.907 262.06 156.893 262.159 156.875V158.044C261.913 158.114 261.726 158.158 261.597 158.176C261.468 158.193 261.292 158.202 261.069 158.202C260.524 158.202 260.129 158.009 259.883 157.622C259.754 157.417 259.663 157.127 259.61 156.752C259.288 157.174 258.825 157.54 258.222 157.851C257.618 158.161 256.953 158.316 256.227 158.316C255.354 158.316 254.639 158.053 254.082 157.525C253.531 156.992 253.256 156.327 253.256 155.53C253.256 154.657 253.528 153.98 254.073 153.5C254.618 153.02 255.333 152.724 256.218 152.612L258.74 152.296ZM263.759 148.587H265.262V150.213C265.385 149.896 265.687 149.513 266.167 149.062C266.647 148.604 267.201 148.376 267.828 148.376C267.857 148.376 267.907 148.379 267.978 148.385C268.048 148.391 268.168 148.402 268.338 148.42V150.09C268.244 150.072 268.156 150.061 268.074 150.055C267.998 150.049 267.913 150.046 267.819 150.046C267.022 150.046 266.41 150.304 265.982 150.819C265.555 151.329 265.341 151.918 265.341 152.586V158H263.759V148.587ZM269.674 145.089H271.194V152.586L275.255 148.587H277.276L273.673 152.111L277.479 158H275.457L272.521 153.254L271.194 154.467V158H269.674V145.089ZM282.629 148.376C283.297 148.376 283.944 148.534 284.571 148.851C285.198 149.161 285.676 149.565 286.004 150.063C286.32 150.538 286.531 151.092 286.637 151.725C286.73 152.158 286.777 152.85 286.777 153.799H279.878C279.907 154.754 280.133 155.521 280.555 156.102C280.977 156.676 281.63 156.963 282.515 156.963C283.341 156.963 284 156.69 284.492 156.146C284.773 155.829 284.973 155.463 285.09 155.047H286.646C286.604 155.393 286.467 155.779 286.232 156.207C286.004 156.629 285.746 156.975 285.459 157.244C284.979 157.713 284.384 158.029 283.675 158.193C283.294 158.287 282.863 158.334 282.383 158.334C281.211 158.334 280.218 157.909 279.403 157.06C278.589 156.204 278.182 155.009 278.182 153.474C278.182 151.962 278.592 150.734 279.412 149.791C280.232 148.848 281.305 148.376 282.629 148.376ZM285.151 152.542C285.087 151.856 284.938 151.309 284.703 150.898C284.27 150.137 283.546 149.756 282.532 149.756C281.806 149.756 281.196 150.02 280.704 150.547C280.212 151.068 279.951 151.733 279.922 152.542H285.151ZM289.045 145.959H290.645V148.587H292.147V149.879H290.645V156.022C290.645 156.351 290.756 156.57 290.979 156.682C291.102 156.746 291.307 156.778 291.594 156.778C291.67 156.778 291.752 156.778 291.84 156.778C291.928 156.772 292.03 156.764 292.147 156.752V158C291.966 158.053 291.775 158.091 291.576 158.114C291.383 158.138 291.172 158.149 290.943 158.149C290.205 158.149 289.704 157.962 289.44 157.587C289.177 157.206 289.045 156.714 289.045 156.11V149.879H287.771V148.587H289.045V145.959ZM299.688 155.047C299.735 155.574 299.867 155.979 300.084 156.26C300.482 156.77 301.174 157.024 302.158 157.024C302.744 157.024 303.26 156.898 303.705 156.646C304.15 156.389 304.373 155.993 304.373 155.46C304.373 155.056 304.194 154.748 303.837 154.537C303.608 154.408 303.157 154.259 302.483 154.089L301.227 153.772C300.424 153.573 299.832 153.351 299.451 153.104C298.771 152.677 298.432 152.085 298.432 151.329C298.432 150.438 298.751 149.718 299.39 149.167C300.034 148.616 300.898 148.341 301.982 148.341C303.4 148.341 304.423 148.757 305.05 149.589C305.442 150.116 305.633 150.685 305.621 151.294H304.127C304.098 150.937 303.972 150.611 303.749 150.318C303.386 149.902 302.756 149.694 301.859 149.694C301.262 149.694 300.808 149.809 300.497 150.037C300.192 150.266 300.04 150.567 300.04 150.942C300.04 151.353 300.242 151.681 300.646 151.927C300.881 152.073 301.227 152.202 301.684 152.313L302.729 152.568C303.866 152.844 304.628 153.11 305.015 153.368C305.63 153.772 305.938 154.408 305.938 155.275C305.938 156.113 305.618 156.837 304.979 157.446C304.347 158.056 303.38 158.36 302.079 158.36C300.679 158.36 299.686 158.044 299.1 157.411C298.52 156.772 298.209 155.984 298.168 155.047H299.688ZM311.378 148.314C312.438 148.314 313.3 148.572 313.962 149.088C314.63 149.604 315.031 150.491 315.166 151.751H313.628C313.534 151.171 313.32 150.69 312.986 150.31C312.652 149.923 312.116 149.729 311.378 149.729C310.37 149.729 309.649 150.222 309.216 151.206C308.935 151.845 308.794 152.633 308.794 153.57C308.794 154.514 308.993 155.308 309.392 155.952C309.79 156.597 310.417 156.919 311.272 156.919C311.929 156.919 312.447 156.72 312.828 156.321C313.215 155.917 313.481 155.366 313.628 154.669H315.166C314.99 155.917 314.551 156.831 313.848 157.411C313.145 157.985 312.245 158.272 311.149 158.272C309.919 158.272 308.938 157.824 308.205 156.928C307.473 156.025 307.106 154.9 307.106 153.553C307.106 151.9 307.508 150.614 308.311 149.694C309.113 148.774 310.136 148.314 311.378 148.314ZM320.483 156.98C321.532 156.98 322.25 156.585 322.637 155.794C323.029 154.997 323.226 154.112 323.226 153.14C323.226 152.261 323.085 151.546 322.804 150.995C322.358 150.128 321.591 149.694 320.501 149.694C319.534 149.694 318.831 150.063 318.392 150.802C317.952 151.54 317.732 152.431 317.732 153.474C317.732 154.476 317.952 155.311 318.392 155.979C318.831 156.646 319.528 156.98 320.483 156.98ZM320.545 148.314C321.758 148.314 322.783 148.719 323.621 149.527C324.459 150.336 324.878 151.525 324.878 153.096C324.878 154.613 324.509 155.867 323.771 156.857C323.032 157.848 321.887 158.343 320.334 158.343C319.039 158.343 318.011 157.906 317.249 157.033C316.487 156.154 316.106 154.977 316.106 153.5C316.106 151.918 316.508 150.658 317.311 149.721C318.113 148.783 319.191 148.314 320.545 148.314ZM326.812 148.587H328.314V150.213C328.438 149.896 328.739 149.513 329.22 149.062C329.7 148.604 330.254 148.376 330.881 148.376C330.91 148.376 330.96 148.379 331.03 148.385C331.101 148.391 331.221 148.402 331.391 148.42V150.09C331.297 150.072 331.209 150.061 331.127 150.055C331.051 150.049 330.966 150.046 330.872 150.046C330.075 150.046 329.463 150.304 329.035 150.819C328.607 151.329 328.394 151.918 328.394 152.586V158H326.812V148.587ZM336.682 148.376C337.35 148.376 337.997 148.534 338.624 148.851C339.251 149.161 339.729 149.565 340.057 150.063C340.373 150.538 340.584 151.092 340.689 151.725C340.783 152.158 340.83 152.85 340.83 153.799H333.931C333.96 154.754 334.186 155.521 334.607 156.102C335.029 156.676 335.683 156.963 336.567 156.963C337.394 156.963 338.053 156.69 338.545 156.146C338.826 155.829 339.025 155.463 339.143 155.047H340.698C340.657 155.393 340.52 155.779 340.285 156.207C340.057 156.629 339.799 156.975 339.512 157.244C339.031 157.713 338.437 158.029 337.728 158.193C337.347 158.287 336.916 158.334 336.436 158.334C335.264 158.334 334.271 157.909 333.456 157.06C332.642 156.204 332.234 155.009 332.234 153.474C332.234 151.962 332.645 150.734 333.465 149.791C334.285 148.848 335.357 148.376 336.682 148.376ZM339.204 152.542C339.14 151.856 338.99 151.309 338.756 150.898C338.322 150.137 337.599 149.756 336.585 149.756C335.858 149.756 335.249 150.02 334.757 150.547C334.265 151.068 334.004 151.733 333.975 152.542H339.204ZM343.159 156.084H344.996V158H343.159V156.084ZM348.169 156.084H350.006V158H348.169V156.084ZM353.179 156.084H355.016V158H353.179V156.084Z" fill="black"/>
<defs>
<filter id="filter0_d_333_21" x="0" y="0" width="460" height="252" filterUnits="userSpaceOnUse" color-interpolation-filters="sRGB">
<feFlood flood-opacity="0" result="BackgroundImageFix"/>
<feColorMatrix in="SourceAlpha" type="matrix" values="0 0 0 0 0 0 0 0 0 0 0 0 0 0 0 0 0 0 127 0" result="hardAlpha"/>
<feOffset dy="4"/>
<feGaussianBlur stdDeviation="2"/>
<feComposite in2="hardAlpha" operator="out"/>
<feColorMatrix type="matrix" values="0 0 0 0 0 0 0 0 0 0 0 0 0 0 0 0 0 0 0.25 0"/>
<feBlend mode="normal" in2="BackgroundImageFix" result="effect1_dropShadow_333_21"/>
<feBlend mode="normal" in="SourceGraphic" in2="effect1_dropShadow_333_21" result="shape"/>
</filter>
<filter id="filter1_b_333_21" x="-50.3656" y="-54.3656" width="560.731" height="352.731" filterUnits="userSpaceOnUse" color-interpolation-filters="sRGB">
<feFlood flood-opacity="0" result="BackgroundImageFix"/>
<feGaussianBlur in="BackgroundImage" stdDeviation="27.1828"/>
<feComposite in2="SourceAlpha" operator="in" result="effect1_backgroundBlur_333_21"/>
<feBlend mode="normal" in="SourceGraphic" in2="effect1_backgroundBlur_333_21" result="shape"/>
</filter>
</defs>
</svg>
