<svg id="visual" viewBox="0 0 900 600" width="900" height="600" xmlns="http://www.w3.org/2000/svg" xmlns:xlink="http://www.w3.org/1999/xlink" version="1.1"><rect x="0" y="0" width="900" height="600" fill="#002233"></rect><path d="M631 600L609.2 575C587.3 550 543.7 500 543.5 450C543.3 400 586.7 350 603.5 300C620.3 250 610.7 200 619.8 150C629 100 657 50 671 25L685 0L900 0L900 25C900 50 900 100 900 150C900 200 900 250 900 300C900 350 900 400 900 450C900 500 900 550 900 575L900 600Z" fill="#0066FF" stroke-linecap="round" stroke-linejoin="miter"></path></svg>