<svg width="77" height="77" viewBox="0 0 77 77" fill="none" xmlns="http://www.w3.org/2000/svg">
<path d="M51.3317 46.1999C64.0684 46.1999 74.4311 35.8372 74.4311 23.1005C74.4311 10.3639 64.0684 0.00120926 51.3317 0.00120926C38.5951 0.00120926 28.2324 10.3639 28.2324 23.1005C28.2324 35.8372 38.5951 46.1999 51.3317 46.1999ZM51.3317 2.5677C62.653 2.5677 71.8644 11.7792 71.8644 23.1004C71.8644 34.4216 62.653 43.6331 51.3317 43.6331C40.0105 43.6331 30.7991 34.4216 30.7991 23.1004C30.7991 11.7792 40.0105 2.5677 51.3317 2.5677Z" fill="white"/>
<path d="M51.3319 29.5169C49.9164 29.5169 48.7652 28.3659 48.7652 26.9503C48.7652 26.242 48.1916 25.667 47.482 25.667C46.7723 25.667 46.1987 26.242 46.1987 26.9503C46.1987 29.3346 47.84 31.3276 50.0486 31.9013V32.0836C50.0486 32.7919 50.6222 33.3668 51.3319 33.3668C52.0415 33.3668 52.6151 32.7919 52.6151 32.0836V31.9013C54.8237 31.3277 56.465 29.3346 56.465 26.9503C56.465 24.1193 54.1627 21.8171 51.3319 21.8171C49.9164 21.8171 48.7652 20.6661 48.7652 19.2505C48.7652 17.8351 49.9163 16.6839 51.3319 16.6839C52.7473 16.6839 53.8985 17.8349 53.8985 19.2505C53.8985 19.9588 54.4721 20.5337 55.1817 20.5337C55.8914 20.5337 56.465 19.9588 56.465 19.2505C56.465 16.8661 54.8237 14.8732 52.6151 14.2995V14.1172C52.6151 13.4089 52.0415 12.834 51.3319 12.834C50.6222 12.834 50.0486 13.4089 50.0486 14.1172V14.2995C47.84 14.873 46.1987 16.8661 46.1987 19.2505C46.1987 22.0815 48.501 24.3836 51.3319 24.3836C52.7473 24.3836 53.8985 25.5347 53.8985 26.9503C53.8985 28.3659 52.7474 29.5169 51.3319 29.5169Z" fill="#81E880"/>
<path d="M51.3318 41.0666C61.2388 41.0666 69.2979 33.0075 69.2979 23.1004C69.2979 13.1932 61.2389 5.13434 51.3318 5.13434C41.4246 5.13434 33.3657 13.1934 33.3657 23.1005C33.3657 33.0077 41.4248 41.0666 51.3318 41.0666ZM51.3318 7.70098C59.8233 7.70098 66.7313 14.609 66.7313 23.1005C66.7313 31.5921 59.8233 38.5001 51.3318 38.5001C42.8402 38.5001 35.9322 31.5921 35.9322 23.1005C35.9322 14.609 42.8402 7.70098 51.3318 7.70098Z" fill="white"/>
<path d="M6.41654 68.6575C6.41654 67.5962 5.55287 66.7325 4.49159 66.7325C3.43032 66.7325 2.56665 67.5962 2.56665 68.6575C2.56665 69.7188 3.43032 70.5824 4.49159 70.5824C5.55287 70.5824 6.41654 69.7188 6.41654 68.6575Z" fill="white"/>
<path d="M76.3099 53.8996C74.8945 51.4473 71.7439 50.608 69.3776 51.9786L54.6082 59.1677C52.3124 60.3162 49.9948 60.3162 44.9155 60.3162C39.9505 60.3162 32.3699 59.0624 32.2929 59.0508C31.5948 58.934 30.9327 59.4063 30.8172 60.1044C30.7004 60.8039 31.1727 61.466 31.872 61.5815C32.1902 61.6353 39.736 62.8828 44.9155 62.8828C50.2436 62.8828 52.9181 62.8828 55.7427 61.4699L70.5814 54.2437C71.1743 53.9011 71.8647 53.81 72.5295 53.987C73.1905 54.1654 73.7448 54.5902 74.0862 55.183C74.4301 55.7772 74.5213 56.4688 74.3441 57.1311C74.1669 57.7934 73.7422 58.3464 73.1121 58.7109L55.7607 69.5099C55.7248 69.5342 52.0224 71.866 43.6324 71.866C36.3574 71.866 25.1183 65.6728 24.9565 65.5842C24.8396 65.5278 22.0575 64.1662 16.6831 64.1662C15.9735 64.1662 15.3999 64.7411 15.3999 65.4494C15.3999 66.1578 15.9735 66.7327 16.6831 66.7327C21.3505 66.7327 23.7554 67.8556 23.7605 67.8556V67.8543C24.2456 68.1238 35.6926 74.4324 43.6324 74.4324C52.8978 74.4324 57.0068 71.7632 57.1429 71.6721L74.4315 60.9117C75.6185 60.2264 76.468 59.1189 76.8223 57.7958C77.1787 56.47 76.9953 55.0866 76.3099 53.8996Z" fill="white"/>
<path d="M16.6829 48.7663H26.9493C28.4469 48.7663 30.9917 50.676 33.2374 52.3595C36.053 54.4718 38.7133 56.4661 41.0655 56.4661H48.7653C50.7146 56.4661 51.6821 57.3502 51.7079 57.3734C51.9581 57.6236 52.2867 57.7494 52.6151 57.7494C52.9437 57.7494 53.2722 57.6236 53.5224 57.3734C54.0241 56.8716 54.0241 56.0605 53.5224 55.5588C53.3531 55.3895 51.7772 53.8995 48.7653 53.8995H41.0655C39.5679 53.8995 37.0231 51.9899 34.7774 50.3063C31.9618 48.194 29.3015 46.1997 26.9493 46.1997H16.6829C15.9732 46.1997 15.3997 46.7746 15.3997 47.483C15.3997 48.1913 15.9732 48.7663 16.6829 48.7663Z" fill="white"/>
<path d="M8.98302 41.0666H1.28325C0.573573 41.0666 0 41.6415 0 42.3498C0 43.0581 0.573573 43.6331 1.28325 43.6331H8.98302C9.69134 43.6331 10.2663 44.2092 10.2663 44.9163V73.1488C10.2663 73.8559 9.69134 74.432 8.98302 74.432H1.28325C0.573573 74.432 0 75.0069 0 75.7153C0 76.4236 0.573573 76.9985 1.28325 76.9985H8.98302C11.1056 76.9985 12.8329 75.2712 12.8329 73.1486V44.9165C12.8329 42.7939 11.1056 41.0666 8.98302 41.0666Z" fill="white"/>
</svg>
